<svg xmlns="http://www.w3.org/2000/svg" viewBox="0 0 20 20"><defs><style>.cls-1{fill:#fff;}</style></defs><g id="Layer_2" data-name="Layer 2"><g id="Layer_2-2" data-name="Layer 2"><path class="cls-1" d="M10,0A10,10,0,1,0,20,10,10,10,0,0,0,10,0Zm0,1.3A8.7,8.7,0,1,1,1.3,10,8.69,8.69,0,0,1,10,1.3ZM6.3,5.87A1.52,1.52,0,1,0,7.83,7.39,1.52,1.52,0,0,0,6.3,5.87Zm7.4,0a1.52,1.52,0,1,0,1.52,1.52A1.53,1.53,0,0,0,13.7,5.87ZM10,11.09A6.43,6.43,0,0,0,4.67,14a.66.66,0,1,0,1.09.73h0a5,5,0,0,1,8.48,0A.66.66,0,0,0,15.33,14h0A6.43,6.43,0,0,0,10,11.09Z"/></g></g></svg>