<svg xmlns="http://www.w3.org/2000/svg" viewBox="0 0 20 20"><defs><style>.cls-1{fill:#fff;}</style></defs><g id="Layer_2" data-name="Layer 2"><g id="Layer_2-2" data-name="Layer 2"><path class="cls-1" d="M10,0A10,10,0,1,0,20,10,10,10,0,0,0,10,0Zm0,1.3A8.7,8.7,0,1,1,1.3,10,8.69,8.69,0,0,1,10,1.3Z"/><circle class="cls-1" cx="6.3" cy="7.39" r="1.52"/><circle class="cls-1" cx="13.7" cy="7.39" r="1.52"/><path class="cls-1" d="M10,16a6.43,6.43,0,0,0,5.33-2.89.66.66,0,0,0-1.09-.73h0a5,5,0,0,1-8.48,0,.66.66,0,1,0-1.09.73h0A6.43,6.43,0,0,0,10,16Z"/></g></g></svg>