<svg xmlns="http://www.w3.org/2000/svg" viewBox="0 0 45 45"><defs><style>.cls-1{fill:#fff;}.cls-2{fill:#e6e7e8;}.cls-3{fill:#717b78;}</style></defs><g id="Layer_2" data-name="Layer 2"><g id="Layer_5" data-name="Layer 5"><rect class="cls-1" x="1" y="1" width="43" height="43" rx="8"/><path class="cls-2" d="M36,2a7,7,0,0,1,7,7V36a7,7,0,0,1-7,7H9a7,7,0,0,1-7-7V9A7,7,0,0,1,9,2H36m0-2H9A9,9,0,0,0,0,9V36a9,9,0,0,0,9,9H36a9,9,0,0,0,9-9V9a9,9,0,0,0-9-9Z"/><path class="cls-3" d="M34,35.54c0-.06.06-.12.06-.17v-.06c0-.06.06-.17.06-.23V10.37c0-.11,0-.17-.06-.23v-.05C34,10,34,10,34,9.92s0-.06,0-.06-.06-.12-.12-.12l-.06-.05-.17-.18h0s-.17,0-.23-.11H33.3c-.06,0-.12-.06-.18-.06h-19A1.15,1.15,0,0,0,13,10.49V35.2a1.15,1.15,0,0,0,2.29,0V11.46H27.11L20.8,13.93a1.1,1.1,0,0,0-.75,1V30.44a1.13,1.13,0,0,0,.69,1l11.75,4.59H33a.51.51,0,0,0,.29-.06h.06c.11-.06.17-.06.28-.12h0l.17-.17.06-.06c.06,0,.06-.11.12-.11S33.93,35.54,34,35.54ZM25.9,22.76a1.15,1.15,0,0,1-2.29,0v-.12a1.15,1.15,0,1,1,2.29,0Z"/></g></g></svg>