<svg xmlns="http://www.w3.org/2000/svg" viewBox="0 0 45 45"><defs><style>.cls-1{fill:#fff;}.cls-2{fill:#e6e7e8;}.cls-3{fill:#717b78;}</style></defs><g id="Layer_2" data-name="Layer 2"><g id="Layer_5" data-name="Layer 5"><rect class="cls-1" x="1" y="1" width="43" height="43" rx="8"/><path class="cls-2" d="M36,2a7,7,0,0,1,7,7V36a7,7,0,0,1-7,7H9a7,7,0,0,1-7-7V9A7,7,0,0,1,9,2H36m0-2H9A9,9,0,0,0,0,9V36a9,9,0,0,0,9,9H36a9,9,0,0,0,9-9V9a9,9,0,0,0-9-9Z"/><path class="cls-3" d="M29.87,24.9a1.77,1.77,0,0,0-1.22.35,1.73,1.73,0,0,0-1.35-.95,1.76,1.76,0,0,0-1.22.35,1.73,1.73,0,0,0-1.36-.94,1.7,1.7,0,0,0-1,.21V20.14a1.77,1.77,0,0,0-1.56-1.78,1.73,1.73,0,0,0-1.9,1.72v8.38l-1.35-1.12a1.81,1.81,0,0,0-2.39,0,1.76,1.76,0,0,0-.56,1.29,1.68,1.68,0,0,0,.53,1.27l4.09,4.39a.75.75,0,0,1,.16.29L21.14,36a1.61,1.61,0,0,0,1.54,1.14H28.8a1.62,1.62,0,0,0,1.6-1.39l1-7.46V26.68A1.76,1.76,0,0,0,29.87,24.9Zm.68,3.25-1,7.46a.73.73,0,0,1-.73.63H22.68a.73.73,0,0,1-.7-.52l-.41-1.37a1.62,1.62,0,0,0-.37-.63l-4.11-4.41a.84.84,0,0,1-.27-.65A.92.92,0,0,1,17.1,28a.85.85,0,0,1,.59-.22.94.94,0,0,1,.63.23l2.08,1.72a.44.44,0,0,0,.47.06.46.46,0,0,0,.25-.4V20.08a.84.84,0,0,1,.28-.63.82.82,0,0,1,.65-.21.88.88,0,0,1,.77.9v6.94a.44.44,0,0,0,.88,0V25.43A.84.84,0,0,1,24,24.8a.86.86,0,0,1,.65-.22.9.9,0,0,1,.77.91v1.59a.44.44,0,0,0,.44.44.44.44,0,0,0,.44-.44V26a.84.84,0,0,1,.28-.63.81.81,0,0,1,.65-.22.89.89,0,0,1,.77.9v1a.44.44,0,0,0,.44.44.44.44,0,0,0,.44-.44v-.46a.87.87,0,0,1,.27-.63.84.84,0,0,1,.66-.21.88.88,0,0,1,.77.9ZM16,16l-.86-.5v1a.44.44,0,0,1-.88,0v-1l-.86.5a.45.45,0,0,1-.61-.16.43.43,0,0,1,.17-.6l.86-.5-.86-.5a.43.43,0,0,1-.17-.6.44.44,0,0,1,.61-.16l.86.5V13a.44.44,0,1,1,.88,0v1l.86-.5a.44.44,0,1,1,.44.76l-.86.5.86.5a.43.43,0,0,1,.16.6.44.44,0,0,1-.38.22A.46.46,0,0,1,16,16Zm3-.76.86-.5-.86-.5a.44.44,0,0,1-.16-.6.43.43,0,0,1,.6-.16l.86.5V13a.44.44,0,0,1,.44-.44.43.43,0,0,1,.44.44v1l.87-.5a.44.44,0,0,1,.44.76l-.87.5.87.5a.44.44,0,0,1-.22.82A.43.43,0,0,1,22,16l-.87-.5v1a.44.44,0,0,1-.44.44.44.44,0,0,1-.44-.44v-1l-.86.5a.46.46,0,0,1-.22.06.44.44,0,0,1-.22-.82Zm6,0,.87-.5-.87-.5a.44.44,0,0,1,.44-.76l.87.5V13a.43.43,0,0,1,.44-.44.44.44,0,0,1,.44.44v1l.86-.5a.44.44,0,1,1,.44.76l-.86.5.86.5a.44.44,0,0,1-.22.82A.46.46,0,0,1,28,16l-.86-.5v1a.44.44,0,0,1-.44.44.44.44,0,0,1-.44-.44v-1l-.87.5a.43.43,0,0,1-.22.06.44.44,0,0,1-.22-.82Zm9.68.6a.46.46,0,0,1-.39.22A.39.39,0,0,1,34,16l-.87-.5v1a.44.44,0,0,1-.88,0v-1l-.86.5a.46.46,0,0,1-.22.06.44.44,0,0,1-.38-.22.43.43,0,0,1,.16-.6l.86-.5-.86-.5a.43.43,0,0,1-.16-.6.44.44,0,0,1,.6-.16l.86.5V13a.44.44,0,1,1,.88,0v1l.87-.5a.44.44,0,1,1,.44.76l-.87.5.87.5A.44.44,0,0,1,34.63,15.83Z"/></g></g></svg>