<svg xmlns="http://www.w3.org/2000/svg" viewBox="0 0 45 45"><defs><style>.cls-1{fill:#fff;}.cls-2{fill:#e6e7e8;}.cls-3{fill:#717b78;}</style></defs><g id="Layer_2" data-name="Layer 2"><g id="Layer_5" data-name="Layer 5"><rect class="cls-1" x="1" y="1" width="43" height="43" rx="8"/><path class="cls-2" d="M36,2a7,7,0,0,1,7,7V36a7,7,0,0,1-7,7H9a7,7,0,0,1-7-7V9A7,7,0,0,1,9,2H36m0-2H9A9,9,0,0,0,0,9V36a9,9,0,0,0,9,9H36a9,9,0,0,0,9-9V9a9,9,0,0,0-9-9Z"/><path class="cls-3" d="M35,29.47V15.53h0a2.89,2.89,0,0,0,0-.5c0-3.41-5.35-6-12.45-6-6.87,0-12.11,2.4-12.46,5.65A1.14,1.14,0,0,0,10,15v4.71A.8.8,0,0,0,10,20a2.81,2.81,0,0,0,0,.5v9a1.14,1.14,0,0,0,.05.33V30c0,3.41,5.36,6,12.46,6S35,33.38,35,30a1.26,1.26,0,0,0,0-.33C35,29.59,35,29.53,35,29.47Zm-2-9.73a.8.8,0,0,0,0,.27c0,1.88-4.49,4-10.46,4-5.68,0-10-1.89-10.43-3.69v-2C14.22,19.94,18,21,22.54,21S30.78,20,33,18.37v1.37ZM12,23.37C14.23,25,18,26,22.47,26S30.8,25,33,23.31V25c0,1.88-4.49,4-10.46,4S12,26.87,12,25ZM22.54,11c6,0,10.47,2.1,10.47,4s-4.49,4-10.47,4-10.46-2.1-10.46-4S16.56,11,22.54,11Zm0,22.92c-6,0-10.46-2.1-10.46-4a1,1,0,0,0-.06-.33.48.48,0,0,0,0-.17V28.32C14.21,29.94,18,31,22.49,31s8.28-1,10.46-2.65v1.15a.88.88,0,0,0,.06.33A.48.48,0,0,0,33,30C33,31.86,28.53,34,22.54,34Z"/></g></g></svg>