<svg xmlns="http://www.w3.org/2000/svg" viewBox="0 0 45 45"><defs><style>.cls-1{fill:#fff;}.cls-2{fill:#e6e7e8;}.cls-3{fill:#717b78;}</style></defs><g id="Layer_2" data-name="Layer 2"><g id="Layer_5" data-name="Layer 5"><rect class="cls-1" x="1" y="1" width="43" height="43" rx="8"/><path class="cls-2" d="M36,2a7,7,0,0,1,7,7V36a7,7,0,0,1-7,7H9a7,7,0,0,1-7-7V9A7,7,0,0,1,9,2H36m0-2H9A9,9,0,0,0,0,9V36a9,9,0,0,0,9,9H36a9,9,0,0,0,9-9V9a9,9,0,0,0-9-9Z"/><path class="cls-3" d="M15.82,27.89V14.33H18V27.89Z"/><path class="cls-3" d="M30.6,18.43a4,4,0,0,1-1.39,3.26,6.16,6.16,0,0,1-4,1.13H23.84v5.07H21.62V14.33h3.91a5.9,5.9,0,0,1,3.8,1A3.71,3.71,0,0,1,30.6,18.43ZM23.84,21H25a4.19,4.19,0,0,0,2.5-.59,2.15,2.15,0,0,0,.8-1.85,2.12,2.12,0,0,0-.72-1.75,3.52,3.52,0,0,0-2.22-.57H23.84Z"/></g></g></svg>