<svg xmlns="http://www.w3.org/2000/svg" viewBox="0 0 45 45"><defs><style>.cls-1{fill:#fff;}.cls-2{fill:#e6e7e8;}.cls-3{fill:#717b78;}</style></defs><g id="Layer_2" data-name="Layer 2"><g id="Layer_5" data-name="Layer 5"><rect class="cls-1" x="1" y="1" width="43" height="43" rx="8"/><path class="cls-2" d="M36,2a7,7,0,0,1,7,7V36a7,7,0,0,1-7,7H9a7,7,0,0,1-7-7V9A7,7,0,0,1,9,2H36m0-2H9A9,9,0,0,0,0,9V36a9,9,0,0,0,9,9H36a9,9,0,0,0,9-9V9a9,9,0,0,0-9-9Z"/><path class="cls-3" d="M38.12,20.21l-2.2-.61a15.15,15.15,0,0,0-.62-1.52l1.07-2a.59.59,0,0,0-.11-.68L34.4,13.58a.59.59,0,0,0-.67-.12l-2,1.07a6.29,6.29,0,0,0-1.52-.62l-.62-2.19a.55.55,0,0,0-.56-.39h-.67V9.13a.54.54,0,0,0-.57-.56H12.07a.54.54,0,0,0-.56.56V35a.53.53,0,0,0,.56.56H27.82a.53.53,0,0,0,.57-.56V32.76h.73a.67.67,0,0,0,.56-.4l.62-2.19c.5-.17,1-.39,1.52-.62l2,1.07a.59.59,0,0,0,.67-.11l1.86-1.86a.59.59,0,0,0,.11-.67l-1.07-2A6.29,6.29,0,0,0,36,24.49l2.19-.62a.56.56,0,0,0,.4-.56V20.66A.77.77,0,0,0,38.12,20.21ZM28.39,17.4a4.7,4.7,0,0,1,0,9.34ZM27.26,34.45H12.64V9.7H27.26V34.45ZM37.39,23l-2.09.56a.73.73,0,0,0-.39.4,7.17,7.17,0,0,1-.73,1.8.52.52,0,0,0,0,.56l1.07,1.86L34,29.44,32.1,28.37a.52.52,0,0,0-.56,0,7.32,7.32,0,0,1-1.8.73.71.71,0,0,0-.4.4l-.56,2.08h-.39V27.81a5.82,5.82,0,0,0,0-11.59V12.51h.33l.57,2.08a.63.63,0,0,0,.39.39,7.39,7.39,0,0,1,1.8.73.48.48,0,0,0,.56,0l1.86-1.06,1.29,1.29L34.12,17.8a.52.52,0,0,0,0,.56,6.68,6.68,0,0,1,.73,1.8.67.67,0,0,0,.4.39l2.08.56V23Z"/><path class="cls-3" d="M17.14,16.45h-.57V13.63a.56.56,0,0,0-1.12,0v2.82h-.56a.56.56,0,1,0,0,1.12h.56V30.51a.56.56,0,0,0,1.12,0V17.57h.57a.56.56,0,1,0,0-1.12Z"/><path class="cls-3" d="M25,26.57h-.56V13.63a.57.57,0,0,0-1.13,0V26.57h-.56a.57.57,0,0,0,0,1.13h.56v2.81a.57.57,0,0,0,1.13,0V27.7H25a.57.57,0,0,0,0-1.13Z"/><path class="cls-3" d="M21.07,21h-.56V13.63a.56.56,0,0,0-1.12,0V21h-.57a.56.56,0,1,0,0,1.12h.57v8.44a.56.56,0,0,0,1.12,0V22.07h.56a.56.56,0,1,0,0-1.12Z"/></g></g></svg>