<svg xmlns="http://www.w3.org/2000/svg" viewBox="0 0 45 45"><defs><style>.cls-1,.cls-4,.cls-5,.cls-6,.cls-7{fill:none;}.cls-2{fill:#eaeaea;}.cls-2,.cls-3,.cls-4{stroke:#717b78;stroke-width:0.55px;}.cls-2,.cls-3,.cls-4,.cls-5,.cls-6,.cls-7{stroke-miterlimit:10;}.cls-3,.cls-9{fill:#fff;}.cls-5{stroke:#8cc63f;}.cls-5,.cls-6,.cls-7{stroke-width:0.74px;}.cls-6{stroke:#f6b03e;}.cls-7{stroke:#e65445;}.cls-8{fill:#8cc63f;}.cls-9{font-size:11.34px;font-family:OpenSans-CondensedBold, Open Sans Condensed;font-weight:700;}.cls-10{font-family:OpenSans-Semibold, Open Sans;font-weight:600;letter-spacing:0em;}</style></defs><g id="Layer_2" data-name="Layer 2"><g id="Layer_5" data-name="Layer 5"><rect class="cls-1" width="45" height="45" rx="9"/><path class="cls-2" d="M23,19.15a8.23,8.23,0,0,0,7.61-4.56l-15.17-.08A8.21,8.21,0,0,0,23,19.15Z"/><path class="cls-2" d="M23.09,4.56a8.22,8.22,0,0,0-7.61,4.55l15.18.08A8.2,8.2,0,0,0,23.09,4.56Z"/><path class="cls-3" d="M30.63,14.59H32a2.7,2.7,0,0,0,0-5.4H30.66L15.48,9.11H14.1a2.7,2.7,0,1,0,0,5.4h1.38Z"/><path class="cls-2" d="M32.27,39.32a13.88,13.88,0,0,0,.5-19.94l-19.64-.1a13.87,13.87,0,0,0,.31,19.95Z"/><circle class="cls-4" cx="23.03" cy="2.69" r="1.9" transform="translate(-0.03 0.31) rotate(-0.77)"/><polyline class="cls-5" points="18.56 11.83 16.13 11.82 14.96 11.81"/><line class="cls-6" x1="27.07" y1="11.87" x2="30.66" y2="11.89"/><line class="cls-7" x1="21.23" y1="11.84" x2="24.83" y2="11.86"/><polyline class="cls-4" points="12.01 20.68 4.91 20.65 4.89 23.4"/><rect class="cls-2" x="3.01" y="23.4" width="3.5" height="8.03" transform="translate(0.13 -0.02) rotate(0.28)"/><polyline class="cls-4" points="2.38 35.94 2.39 34.19 7.05 34.21 7.05 35.96"/><line class="cls-4" x1="4.74" y1="31.49" x2="4.72" y2="34.21"/><polyline class="cls-4" points="33.88 20.79 40.98 20.82 40.96 23.57"/><rect class="cls-2" x="39.31" y="23.58" width="3.5" height="8.03" transform="translate(81.99 55.37) rotate(-179.72)"/><polyline class="cls-4" points="43.35 36.13 43.36 34.38 38.7 34.36 38.69 36.11"/><line class="cls-4" x1="41.04" y1="31.67" x2="41.03" y2="34.39"/><line class="cls-4" x1="13.22" y1="41.02" x2="31.88" y2="41.11"/><line class="cls-4" x1="14.67" y1="42.78" x2="30.42" y2="42.86"/><line class="cls-4" x1="16.12" y1="44.54" x2="28.95" y2="44.6"/><ellipse class="cls-8" cx="22.9" cy="29.4" rx="8.89" ry="8.9" transform="translate(-0.39 0.31) rotate(-0.77)"/><text class="cls-9" transform="matrix(1, 0.01, -0.01, 1, 15.45, 33.14)">&lt;<tspan class="cls-10" x="5.08" y="0">/</tspan><tspan x="9.51" y="0">&gt;</tspan></text></g></g></svg>