<svg xmlns="http://www.w3.org/2000/svg" viewBox="0 0 45 45"><defs><style>.cls-1{fill:#fff;}.cls-2{fill:#e6e7e8;}.cls-3{fill:#717b78;}.cls-4{fill:none;stroke:#717b78;stroke-miterlimit:10;}</style></defs><g id="Layer_2" data-name="Layer 2"><g id="Layer_5" data-name="Layer 5"><rect class="cls-1" x="1" y="1" width="43" height="43" rx="8"/><path class="cls-2" d="M36,2a7,7,0,0,1,7,7V36a7,7,0,0,1-7,7H9a7,7,0,0,1-7-7V9A7,7,0,0,1,9,2H36m0-2H9A9,9,0,0,0,0,9V36a9,9,0,0,0,9,9H36a9,9,0,0,0,9-9V9a9,9,0,0,0-9-9Z"/><path class="cls-3" d="M25.86,36a4.64,4.64,0,0,1-3.06-1.12,4.72,4.72,0,0,1-1-6.06l1.29-2.22,2.33-4a.48.48,0,0,1,.4-.23.46.46,0,0,1,.4.23l2.61,4.52,1,1.73a4.7,4.7,0,0,1-.94,6.05A4.79,4.79,0,0,1,25.86,36Zm0-12.27-1.93,3.35L22.64,29.3a3.79,3.79,0,1,0,6.45,0l-1-1.72Z"/><path class="cls-3" d="M18.34,21.84l-9.7-4.28V16.17l9.7-4.85v2.35l-6.68,3.09,6.68,2.75Z"/><path class="cls-3" d="M26.83,9.54,21.52,23.82H19.35L24.67,9.54Z"/><path class="cls-3" d="M27.86,19.51l6.68-2.75-6.68-3.09V11.32l9.7,4.85v1.39l-9.7,4.28Z"/><path class="cls-4" d="M28.41,32.27a2.74,2.74,0,0,1-2.59,1.83"/></g></g></svg>