<svg xmlns="http://www.w3.org/2000/svg" viewBox="0 0 45 45"><defs><style>.cls-1{fill:#fff;}.cls-2{fill:#e6e7e8;}.cls-3{fill:#717b78;}</style></defs><g id="Layer_2" data-name="Layer 2"><g id="Layer_5" data-name="Layer 5"><rect class="cls-1" x="1" y="1" width="43" height="43" rx="8"/><path class="cls-2" d="M36,2a7,7,0,0,1,7,7V36a7,7,0,0,1-7,7H9a7,7,0,0,1-7-7V9A7,7,0,0,1,9,2H36m0-2H9A9,9,0,0,0,0,9V36a9,9,0,0,0,9,9H36a9,9,0,0,0,9-9V9a9,9,0,0,0-9-9Z"/><path class="cls-3" d="M17.23,15.37v8.32a4.89,4.89,0,0,1-.61,2.49,4,4,0,0,1-1.76,1.64,6.06,6.06,0,0,1-2.77.58,5.12,5.12,0,0,1-3.71-1.27,4.55,4.55,0,0,1-1.33-3.48V15.37H9.16V23.5a3.22,3.22,0,0,0,.74,2.35,3,3,0,0,0,2.26.76q3,0,3-3.12V15.37Z"/><path class="cls-3" d="M22.62,23.09v5.13h-2.1V15.37h3.63a5.94,5.94,0,0,1,3.68.94A3.33,3.33,0,0,1,29,19.12a3.51,3.51,0,0,1-2.5,3.42l3.63,5.68H27.77L24.7,23.09Zm0-1.74h1.46a3.36,3.36,0,0,0,2.13-.54,2,2,0,0,0,.66-1.62,1.76,1.76,0,0,0-.71-1.57A4,4,0,0,0,24,17.15H22.62Z"/><path class="cls-3" d="M32,28.22V15.37h2.1V26.42h5.44v1.8Z"/></g></g></svg>