<svg xmlns="http://www.w3.org/2000/svg" viewBox="0 0 45 45"><defs><style>.cls-1{fill:#1c1e1d;}.cls-2{fill:#e6e7e8;}.cls-3{fill:#fff;}</style></defs><g id="Layer_2" data-name="Layer 2"><g id="Layer_5" data-name="Layer 5"><rect class="cls-1" x="1" y="1" width="43" height="43" rx="8"/><path class="cls-2" d="M36,2a7,7,0,0,1,7,7V36a7,7,0,0,1-7,7H9a7,7,0,0,1-7-7V9A7,7,0,0,1,9,2H36m0-2H9A9,9,0,0,0,0,9V36a9,9,0,0,0,9,9H36a9,9,0,0,0,9-9V9a9,9,0,0,0-9-9Z"/><path class="cls-3" d="M22.78,8.26A3.07,3.07,0,0,0,20.06,10H18.28a.88.88,0,0,0-.85.84v.28H13.78a.88.88,0,0,0-.85.84v22.5a.88.88,0,0,0,.85.85h18a.87.87,0,0,0,.84-.85V11.91a.87.87,0,0,0-.84-.84H28.12v-.28a.87.87,0,0,0-.84-.84H25.49A3,3,0,0,0,22.78,8.26Zm0,1.69a1.39,1.39,0,0,1,1.36,1,.87.87,0,0,0,.82.64h1.47v1.13H19.12V11.63H20.6a.88.88,0,0,0,.82-.64A1.38,1.38,0,0,1,22.78,10Zm-8.16,2.81h2.81v.84a.89.89,0,0,0,.85.85h9a.88.88,0,0,0,.84-.85v-.84h2.81V33.57H14.62ZM25.8,16.69a.83.83,0,0,0-.56.29l-3.43,3.91-1.62-1.21a.87.87,0,0,0-1.19.15A.88.88,0,0,0,19.17,21l2.25,1.69a.88.88,0,0,0,1.15-.12l3.93-4.5a.86.86,0,0,0,.14-.94A.87.87,0,0,0,25.8,16.69Zm-8.65,7.88a.85.85,0,0,0,0,1.69H28.4a.85.85,0,1,0,0-1.69Zm0,4.5a.85.85,0,0,0,0,1.69H28.4a.85.85,0,1,0,0-1.69Z"/></g></g></svg>