<svg xmlns="http://www.w3.org/2000/svg" viewBox="0 0 45 45"><defs><style>.cls-1{fill:#fff;}.cls-2{fill:#e6e7e8;}.cls-3{fill:#717b78;}</style></defs><g id="Layer_2" data-name="Layer 2"><g id="Layer_5" data-name="Layer 5"><rect class="cls-1" x="1" y="1" width="43" height="43" rx="8"/><path class="cls-2" d="M36,2a7,7,0,0,1,7,7V36a7,7,0,0,1-7,7H9a7,7,0,0,1-7-7V9A7,7,0,0,1,9,2H36m0-2H9A9,9,0,0,0,0,9V36a9,9,0,0,0,9,9H36a9,9,0,0,0,9-9V9a9,9,0,0,0-9-9Z"/><path class="cls-3" d="M32.72,12.58H12.92a.45.45,0,0,0-.45.45v11.7a.45.45,0,0,0,.45.45h1.8v2.25a.45.45,0,0,0,.45.45h1.35v2.25a.45.45,0,0,0,.45.45h11.7a.45.45,0,0,0,.45-.45V27.88h1.8a.45.45,0,0,0,.45-.45V25.18h1.35a.45.45,0,0,0,.45-.45V13A.45.45,0,0,0,32.72,12.58Zm-.45,11.7H30.92a.45.45,0,0,0-.45.45V27h-1.8a.45.45,0,0,0-.45.45v2.25H17.42V27.43A.45.45,0,0,0,17,27H15.62V24.73a.45.45,0,0,0-.45-.45h-1.8V13.48H17V18a.45.45,0,1,0,.9,0v-4.5h.9V18a.45.45,0,0,0,.9,0v-4.5h.9V18a.45.45,0,0,0,.9,0v-4.5h.9V18a.45.45,0,0,0,.9,0v-4.5h.9V18a.45.45,0,0,0,.9,0v-4.5H26V18a.45.45,0,1,0,.9,0v-4.5h.9V18a.45.45,0,0,0,.9,0v-4.5h3.6Z"/><path class="cls-3" d="M35,8.08H10.67A1.34,1.34,0,0,0,9.32,9.43v24.3a1.35,1.35,0,0,0,1.35,1.35H35a1.36,1.36,0,0,0,1.35-1.35V9.43A1.35,1.35,0,0,0,35,8.08Zm.45,25.65a.45.45,0,0,1-.45.45H10.67a.45.45,0,0,1-.45-.45V9.43A.45.45,0,0,1,10.67,9H35a.45.45,0,0,1,.45.45Z"/></g></g></svg>