<svg xmlns="http://www.w3.org/2000/svg" viewBox="0 0 45 45"><defs><style>.cls-1{fill:#fff;}.cls-2{fill:#e6e7e8;}.cls-3{fill:#717b78;}</style></defs><g id="Layer_2" data-name="Layer 2"><g id="Layer_5" data-name="Layer 5"><rect class="cls-1" x="1" y="1" width="43" height="43" rx="8"/><path class="cls-2" d="M36,2a7,7,0,0,1,7,7V36a7,7,0,0,1-7,7H9a7,7,0,0,1-7-7V9A7,7,0,0,1,9,2H36m0-2H9A9,9,0,0,0,0,9V36a9,9,0,0,0,9,9H36a9,9,0,0,0,9-9V9a9,9,0,0,0-9-9Z"/><path class="cls-3" d="M25.65,27.68a.58.58,0,0,1-.4-.17L18.5,20.76a.56.56,0,0,1,0-.79.57.57,0,0,1,.8,0l6.75,6.75a.56.56,0,0,1,0,.79A.58.58,0,0,1,25.65,27.68Z"/><path class="cls-3" d="M18.9,27.68a.58.58,0,0,1-.4-.17.56.56,0,0,1,0-.79L25.25,20a.57.57,0,0,1,.8,0,.56.56,0,0,1,0,.79L19.3,27.51A.58.58,0,0,1,18.9,27.68Z"/><path class="cls-3" d="M22.27,37.8l-.16,0c-4.06-1.27-11.65-5.69-11.65-10.67V14.74a.57.57,0,0,1,.4-.54l11.25-3.38a.62.62,0,0,1,.33,0L33.69,14.2a.57.57,0,0,1,.4.54V27.11c0,5-7.59,9.4-11.65,10.67ZM11.59,15.16v12c0,3.95,6.26,8.11,10.68,9.54C26.7,35.22,33,31.06,33,27.11V15.16L22.27,12Z"/></g></g></svg>